<?xml version="1.0" encoding="UTF-8"?>
<svg width="400" height="400" viewBox="0 0 400 400" xmlns="http://www.w3.org/2000/svg">
  <circle cx="200" cy="200" r="200" fill="#000000"/>
  <circle cx="200" cy="200" r="180" stroke="#C9A961" stroke-width="4" fill="none"/>
  <g transform="translate(200, 100)">
    <rect x="-45" y="10" width="90" height="60" rx="3" stroke="#C9A961" stroke-width="5" fill="none"/>
    <rect x="-3" y="10" width="6" height="60" fill="#C9A961"/>
    <rect x="-45" y="37" width="90" height="6" fill="#C9A961"/>
    <path d="M -25,-10 Q -45,-20 -50,-5 Q -45,5 -25,0 Z" fill="#C9A961"/>
    <path d="M 25,-10 Q 45,-20 50,-5 Q 45,5 25,0 Z" fill="#C9A961"/>
    <circle cx="0" cy="-5" r="8" fill="#C9A961"/>
    <path d="M -5,3 L -15,15" stroke="#C9A961" stroke-width="4" stroke-linecap="round"/>
    <path d="M 5,3 L 15,15" stroke="#C9A961" stroke-width="4" stroke-linecap="round"/>
  </g>
  <text x="200" y="260" font-family="Georgia, serif" font-size="90" font-weight="bold" fill="#C9A961" text-anchor="middle">N.S</text>
  <circle cx="200" cy="245" r="6" fill="#C9A961"/>
  <text x="200" y="310" font-family="Arial, sans-serif" font-size="28" font-weight="600" fill="#C9A961" text-anchor="middle" letter-spacing="4">GIFT &amp; DECOR</text>
</svg>
